<?xml version="1.0" encoding="UTF-8"?>
<svg xmlns="http://www.w3.org/2000/svg" width="398" height="80" viewBox="0 0 398 80" fill="none">
  <path d="M258.267 1.25848C250.133 3.12515 244.667 10.5918 244.667 19.9252C244.667 31.5252 249.467 35.3918 269.067 39.9252C283.333 43.1252 288.4 45.6585 289.467 49.9252C291.6 58.4585 284.133 65.2585 272.667 65.2585C259.733 65.2585 252.667 60.9918 252.667 52.9918C252.667 49.5252 252.267 49.2585 247.2 49.2585H241.733L242.667 54.1918C245.067 67.6585 253.467 73.2585 271.333 73.2585C290 73.2585 299.333 66.4585 299.333 52.8585C299.333 40.3252 293.467 35.6585 271.467 30.5918C255.067 26.7252 251.467 22.9918 255.467 14.0585C257.6 9.52515 264.533 7.39182 273.867 8.32515C279.733 8.99182 282 9.92515 284.4 12.5918C286 14.4585 287.333 17.1252 287.333 18.4585C287.333 20.3252 288.533 21.1252 292 21.5252C294.667 21.7918 296.933 21.7918 297.2 21.6585C298.533 20.1918 294.667 9.39182 291.733 6.32515C286.4 0.725151 270.8 -1.67485 258.267 1.25848Z" fill="black"></path>
  <path d="M352.8 0.991808C353.067 1.79181 355.333 3.79181 357.867 5.52514C366.267 11.2585 370.4 17.7918 371.067 26.4585C372 38.5918 366.533 48.5918 349.6 66.3251C342.133 74.0585 337.067 80.0585 338.267 79.5252C341.733 78.3252 363.333 63.5251 372.267 56.4585C390.4 41.9251 398.933 31.7918 397.333 26.5918C396 22.1918 388.267 16.5918 373.2 8.99181C357.333 0.858474 352.133 -1.14153 352.8 0.991808Z" fill="black"></path>
  <path d="M0 36.5918V71.9252H5.06667H10.1333L9.73333 40.5918L9.33333 9.25848H21.3333C34.8 9.25848 40.5333 11.2585 45.2 17.6585C47.6 20.9918 48 23.3918 48 36.4585C48 48.4585 47.6 52.0585 45.6 54.9918C41.6 61.2585 37.0667 63.1252 26.2667 63.5252L16.2667 63.7918L16.1333 67.7918L16 71.9252H25.3333C37.2 71.9252 43.6 70.0585 49.2 65.1252C55.7333 59.5252 58 51.5252 58 35.3918C58 20.4585 55.8667 13.6585 49.3333 7.52515C44 2.72515 36.6667 1.25848 17.0667 1.25848H0V36.5918Z" fill="black"></path>
  <path d="M155.067 36.5918L154.667 71.9252H159.733H164.667V36.5918V1.25848H160H155.467L155.067 36.5918Z" fill="black"></path>
  <path d="M182 36.4585V71.9252H186.667H191.333V40.4585V8.99182L205.2 9.52515C222.4 10.0585 224.667 11.5251 224.667 21.9251C224.667 31.5251 222.533 33.1251 208.8 34.1918L198 34.9918V38.9918V42.8585L209.733 42.3252C223.733 41.6585 230.267 38.9918 233.2 32.5918C236 26.8585 235.867 16.8585 233.2 11.1251C229.467 3.25848 225.333 2.05848 202.4 1.52515L182 0.991815V36.4585Z" fill="black"></path>
  <path d="M70.8 12.3252C69.3333 13.3918 68.5333 15.3918 68.9333 17.3918C69.2 19.9252 70.1333 20.5918 73.3333 20.5918C76.8 20.5918 77.3333 20.0585 77.7333 16.7252C78.4 11.2585 75.0667 9.25849 70.8 12.3252Z" fill="black"></path>
  <path d="M104.667 27.6585C102.8 27.9251 100 29.3918 98.4 30.9918L95.3333 33.6585V30.8585C95.3333 28.5918 94.5333 27.9251 92 27.9251H88.6667V49.9252V71.9252H92.6667H96.6667V56.7252C96.6667 38.8585 98.2667 35.3918 106.133 35.6585C110.267 35.7918 110.667 35.5251 110.667 31.9251C110.667 27.5251 109.733 26.8585 104.667 27.6585Z" fill="black"></path>
  <path d="M70 49.9252V71.9252H74H78V49.9252V27.9251H74H70V49.9252Z" fill="black"></path>
</svg>
